<svg xmlns="http://www.w3.org/2000/svg" viewBox="0 0 760 190" role="img" aria-labelledby="title desc">
<title id="title">Professional Solutions — Smart Luxury</title>
<desc id="desc">Professional Solutions logo in white and Aegean blue.</desc>
<g fill="none" stroke-linecap="round" stroke-linejoin="round">
  <path d="M58 40h58c22 0 40 18 40 40s-18 40-40 40H78v38H48V68h30v24h38c7 0 12-5 12-12s-5-12-12-12H58z" stroke="#F7F9FC" stroke-width="12"/>
  <path d="M48 68v90h30V108h38c22 0 40-18 40-40" stroke="#F7F9FC" stroke-width="12"/>
  <circle cx="94" cy="20" r="11" fill="#79A8DC" stroke="none"/>
</g>
<text x="190" y="77" fill="#F7F9FC" font-family="Inter,Arial,sans-serif" font-size="55" font-weight="700" letter-spacing="1">PROFESSIONAL</text>
<line x1="190" y1="105" x2="255" y2="105" stroke="#79A8DC" stroke-width="4"/>
<text x="270" y="119" fill="#79A8DC" font-family="Inter,Arial,sans-serif" font-size="37" font-weight="700" letter-spacing="7">SOLUTIONS</text>
<line x1="602" y1="105" x2="730" y2="105" stroke="#79A8DC" stroke-width="4"/>
<text x="315" y="165" fill="#F7F9FC" font-family="Inter,Arial,sans-serif" font-size="18" font-weight="500" letter-spacing="8">SMART LUXURY</text>
</svg>